<svg xmlns="http://www.w3.org/2000/svg" data-article-diagram="true" class="article-diagram-art" width="1330" height="760" viewBox="0 0 1330 760" role="img" aria-labelledby="title desc">
<title id="title">Claude Code · 실행 토폴로지</title><desc id="desc">대화형과 SDK 진입점이 메인 루프에 연결되고 하위 에이전트도 공통 모델 API를 사용한다.</desc>
<style>
.article-diagram-art text{font-family:var(--font-body,sans-serif);font-size:1rem;fill:#e6edf3}
.article-diagram-art .heading{font-size:1.125rem;font-weight:600}
.article-diagram-art .label{font-weight:600}
.article-diagram-art .note{font-size:.875rem;fill:#b4c3d5}
.article-diagram-art .edge{fill:none;stroke:#9aadbf;stroke-width:2;marker-end:url(#arrow)}
.article-diagram-art .return{stroke:#c4a5ff;stroke-dasharray:7 5;marker-end:url(#return-arrow)}
.article-diagram-art .life{stroke:#64748b;stroke-dasharray:5 5}
</style>
<defs><marker id="arrow" viewBox="0 0 10 10" refX="9" refY="5" markerWidth="7" markerHeight="7" orient="auto"><path d="M0 0 10 5 0 10Z" fill="#9aadbf"/></marker><marker id="return-arrow" viewBox="0 0 10 10" refX="9" refY="5" markerWidth="7" markerHeight="7" orient="auto"><path d="M0 0 10 5 0 10Z" fill="#c4a5ff"/></marker></defs>
<rect width="1330" height="760" rx="16" fill="#111c2b"/>
<text x="40" y="36" class="heading">Claude Code · 실행 토폴로지</text>
<path d="M 264 111 L 400 111" class="edge"/>
<rect x="285.3" y="87.0" width="93.4" height="22" rx="4" fill="#111c2b"/>
<text x="332.0" y="103.0" text-anchor="middle" class="note">선택한 지침</text>
<path d="M 264 368 L 324 368 Q 332 368 332 360 L 332 133 Q 332 125 340 125 L 400 125" class="edge"/>
<rect x="285.3" y="222.5" width="93.4" height="22" rx="4" fill="#111c2b"/>
<text x="332.0" y="238.5" text-anchor="middle" class="note">조립한 지침</text>
<path d="M 624 118 L 1060 118" class="edge"/>
<rect x="802.3" y="94.0" width="79.4" height="22" rx="4" fill="#111c2b"/>
<text x="842.0" y="110.0" text-anchor="middle" class="note">모델 호출</text>
<path d="M 512 156 L 512 330" class="edge"/>
<rect x="456.7" y="156.0" width="110.6" height="22" rx="4" fill="#111c2b"/>
<text x="512.0" y="172.0" text-anchor="middle" class="note">tool_use 실행</text>
<path d="M 624 368 L 730 368" class="edge"/>
<rect x="637.3" y="344.0" width="79.4" height="22" rx="4" fill="#111c2b"/>
<text x="677.0" y="360.0" text-anchor="middle" class="note">작업 위임</text>
<path d="M 954 368 L 1060 368" class="edge"/>
<rect x="967.3" y="344.0" width="79.4" height="22" rx="4" fill="#111c2b"/>
<text x="1007.0" y="360.0" text-anchor="middle" class="note">루프 시작</text>
<path d="M 1172 330 L 1172 156" class="edge"/>
<rect x="1114.6" y="306.0" width="114.8" height="22" rx="4" fill="#111c2b"/>
<text x="1172.0" y="322.0" text-anchor="middle" class="note">같은 패킹 경로</text>
<path d="M 512 406 L 512 650" class="edge"/>
<rect x="467.8" y="406.0" width="88.4" height="22" rx="4" fill="#111c2b"/>
<text x="512.0" y="422.0" text-anchor="middle" class="note">Skill 호출</text>
<rect x="40" y="80" width="224" height="76" rx="10" fill="#113544" stroke="#50c6e9" stroke-width="1.8"/>
<text x="152.0" y="108" text-anchor="middle" class="label">대화형 진입점</text>
<text x="152.0" y="131" text-anchor="middle" class="note">지침 우선순위 선택</text>
<rect x="40" y="330" width="224" height="76" rx="10" fill="#113544" stroke="#50c6e9" stroke-width="1.8"/>
<text x="152.0" y="358" text-anchor="middle" class="label">SDK / 비대화형 진입점</text>
<text x="152.0" y="381" text-anchor="middle" class="note">기본·사용자 지침 조립</text>
<rect x="400" y="80" width="224" height="76" rx="10" fill="#12352f" stroke="#54cbb1" stroke-width="1.8"/>
<text x="512.0" y="108" text-anchor="middle" class="label">메인 대화 루프</text>
<text x="512.0" y="131" text-anchor="middle" class="note">지침 · 문맥 · 도구 · 이력</text>
<rect x="1060" y="80" width="224" height="76" rx="10" fill="#293245" stroke="#a2b1c5" stroke-width="1.8"/>
<text x="1172.0" y="108" text-anchor="middle" class="label">공통 모델 API 계층</text>
<text x="1172.0" y="131" text-anchor="middle" class="note">system / messages / tools</text>
<text x="1172.0" y="149" text-anchor="middle" class="note">패킹</text>
<rect x="400" y="330" width="224" height="76" rx="10" fill="#12352f" stroke="#54cbb1" stroke-width="1.8"/>
<text x="512.0" y="358" text-anchor="middle" class="label">도구 실행 경로</text>
<text x="512.0" y="381" text-anchor="middle" class="note">내장 도구 · MCP · 스킬 ·</text>
<text x="512.0" y="399" text-anchor="middle" class="note">에이전트</text>
<rect x="730" y="330" width="224" height="76" rx="10" fill="#12352f" stroke="#54cbb1" stroke-width="1.8"/>
<text x="842.0" y="358" text-anchor="middle" class="label">하위 에이전트 실행기</text>
<text x="842.0" y="381" text-anchor="middle" class="note">에이전트별 지침과 도구 선택</text>
<rect x="1060" y="330" width="224" height="76" rx="10" fill="#12352f" stroke="#54cbb1" stroke-width="1.8"/>
<text x="1172.0" y="358" text-anchor="middle" class="label">하위 에이전트 루프</text>
<text x="1172.0" y="381" text-anchor="middle" class="note">별도 이력 · 모델 · 도구 문맥</text>
<rect x="400" y="650" width="224" height="76" rx="10" fill="#28213f" stroke="#ac8df2" stroke-width="1.8"/>
<text x="512.0" y="678" text-anchor="middle" class="label">스킬 본문 확장</text>
<text x="512.0" y="701" text-anchor="middle" class="note">SKILL.md → user 메시지</text>
</svg>